<?xml version="1.0" encoding="UTF-8"?>
<svg id="Camada_1" xmlns="http://www.w3.org/2000/svg" version="1.1" viewBox="0 0 433.2 433.2">
  <!-- Generator: Adobe Illustrator 29.1.0, SVG Export Plug-In . SVG Version: 2.1.0 Build 142)  -->
  <defs>
    <style>
      .st0 {
        fill: #00af73;
      }

      .st1 {
        fill: #fff;
      }
    </style>
  </defs>
  <rect class="st0" x="1.2" y="2.6" width="432" height="432" rx="94.1" ry="94.1"/>
  <path class="st1" d="M107.7,225.9c-.2-1.2-.2-3.9,0-5.1.8-5.9,8.5-13.7,13-17.5,6.8-5.8,15.2-6.3,22.3-.6l40.2,40.2,106.7-106.8c7.5-6,15.8-5.3,23,.8,10,8.5,18.2,19,7.9,31.3l-130.1,130.2c-5.1,3.9-10.4,3.5-15.3-.4-21.6-22.1-44.1-43.3-65.1-65.9-.9-1.4-2.3-4.7-2.5-6.3Z"/>
</svg>