<?xml version="1.0" encoding="UTF-8"?>
<svg id="Camada_1" xmlns="http://www.w3.org/2000/svg" version="1.1" viewBox="0 0 433.2 433.2">
  <!-- Generator: Adobe Illustrator 29.1.0, SVG Export Plug-In . SVG Version: 2.1.0 Build 142)  -->
  <defs>
    <style>
      .st0 {
        fill: #00af73;
      }

      .st1 {
        fill: #fff;
      }
    </style>
  </defs>
  <rect class="st0" x=".6" y="1.6" width="432" height="432" rx="94.1" ry="94.1"/>
  <path class="st1" d="M160,105.4c25.1,1.2,52.6-2.1,77.4-.2,6.8.5,14.4,4.3,19.4,8.9,8.9,8.2,17.9,18.8,26.4,27.5,11.9,12.2,29,24,29.9,42.4-2,37,2.6,76.6,0,113.2-1.2,16.3-12.5,29.5-29.1,31.2h-122.1c-16.4-2.6-27-15.2-28.1-31.7v-161.4c.8-14.7,11.5-27.5,26.1-30ZM186.7,196.1c-8.7,2.2-9.2,14.9-.5,17.5s31,1.2,37.1.7,10.1-4.3,9.2-11.3-3.2-5.9-6.2-6.9h-39.6ZM187.3,241.7c-10.2,1.6-9.3,16.7.4,18.2h71.2c10.9-1.3,10.8-16.9,0-18.2h-71.6Z"/>
</svg>