<?xml version="1.0" encoding="UTF-8"?>
<svg xmlns="http://www.w3.org/2000/svg" version="1.1" viewBox="0 0 433.2 433.2">
  <defs>
    <style>
      .cls-1 {
        fill: #00af73;
      }

      .cls-2 {
        fill: #fff;
      }
    </style>
  </defs>
  <!-- Generator: Adobe Illustrator 28.7.3, SVG Export Plug-In . SVG Version: 1.2.0 Build 164)  -->
  <g>
    <g id="Camada_1">
      <rect class="cls-1" x=".6" y="1.6" width="432" height="432" rx="94.1" ry="94.1"/>
      <path class="cls-2" d="M209.5,103.3c4.8,0,9.5,0,14.3,0,.6.1,1.1.3,1.7.4,17.2,1.3,33.4,6.1,48.3,15,30.3,18.1,48.9,44.5,55.4,79.2.8,4.1,1.2,8.4,1.8,12.6v14.3c-.3,2.7-.6,5.4-1,8.2-3.9,26.9-15.4,49.9-35.5,68.2-28.9,26.4-63,35.8-101.4,28.2-27.7-5.5-50.2-20.1-67.3-42.6-19.1-25-26.4-53.4-22.3-84.6,2.9-22.8,12.3-42.9,27.5-60.1,17.8-20,39.8-32.4,66.2-37,4.1-.7,8.2-1.2,12.3-1.7ZM209.5,161.6c-1,0-1.7,0-2.5.2-5.4,1-10.9,1.6-16.1,3.2-9.5,2.9-15.7,9.3-17,19.4-.9,6.7-.7,13.5.8,20.2,1.5,6.9,5.2,12.4,11.6,15.9,2.5,1.3,5.1,2.4,7.8,3.3,8.7,2.9,17.4,5.6,26,8.5,3.1,1.1,6.2,2.5,9.1,4.1,3.1,1.8,2.9,5.1,2.4,8.2-.5,2.7-2.7,3.5-5.2,3.8-2,.2-4,.3-6,.3-14.7,0-29.5,0-44.2,0-3.1,0-3.8.7-3.8,3.8,0,4.6,0,9.2,0,13.8,0,2.4.8,3.4,3.2,3.7,6,.8,11.9,1.7,17.9,2.3,5.2.6,10.5.9,15.9,1.3,0,3.2,0,6.3,0,9.4,0,2.1.9,3,3,2.9,2.7,0,5.4,0,8,0,2.9,0,3.3-.5,3.3-3.4,0-3.1,0-6.2,0-9.3,1.6-.2,3-.3,4.3-.5,7.2-.9,14.2-2.3,20.6-5.9,6.5-3.6,10.9-9,11.6-16.5.5-6,.3-12.2-.4-18.2-.8-7-4.8-12.3-10.9-15.7-3.3-1.8-6.7-3.6-10.3-4.8-9.2-3.3-18.6-6.2-27.8-9.5-2.4-.8-4.7-2.3-6.6-4-2.4-2.3-2.1-5.4-1.3-8.4.8-2.6,3.1-3.1,5.5-3.4,1.5-.1,3-.2,4.4-.2,12.3,0,24.7,0,37,0,4.9,0,4.9,0,4.9-5,0-4.2,0-8.3,0-12.5,0-3-.4-3.7-3.4-4.2-5.4-.9-10.9-1.8-16.3-2.5-3.8-.5-7.6-.7-11.6-1.1,0-3.1,0-6.1,0-9,0-2.5-.5-3.1-3-3.1-2.8,0-5.7,0-8.5,0-2.1,0-2.9,1-2.9,3,0,3.1,0,6.2,0,9.6Z"/>
    </g>
  </g>
</svg>