<?xml version="1.0" encoding="UTF-8"?>
<svg id="Camada_1" xmlns="http://www.w3.org/2000/svg" version="1.1" viewBox="0 0 1366 348">
  <!-- Generator: Adobe Illustrator 29.1.0, SVG Export Plug-In . SVG Version: 2.1.0 Build 142)  -->
  <defs>
    <style>
      .st0 {
        fill: #262626;
      }

      .st1 {
        fill: #00af47;
      }
    </style>
  </defs>
  <g>
    <path class="st0" d="M25.3,325.7V20.2h69.8v116.1h41.5L226.9,20.2h84.7l-116.1,147.9,126.1,157.5h-86.8l-97.7-123.9h-41.9v123.9H25.3Z"/>
    <path class="st0" d="M611,325.7h-256.6V20.2h256.6v65.5h-186.8v56.7h165v61.1h-165v56.7h186.8v65.5Z"/>
    <path class="st0" d="M770.3,210.5L637.2,20.2h82.9l85.1,126.6,84.7-126.6h82.9l-132.7,189.8v115.6h-69.8v-115.2Z"/>
  </g>
  <path class="st1" d="M1036.5,37.1v281.8c0,10.2,8.3,18.5,18.5,18.5h282.3c10.4,0,18.8-8.4,18.8-18.8V37.1c0-10.3-8.3-18.6-18.6-18.6h-282.4c-10.2,0-18.6,8.3-18.6,18.6ZM1292.5,279.4h-63.3v-65.1h-129.3V82.2h63.3v71.4h66.1v-71.4h63.3v197.2Z"/>
</svg>