<?xml version="1.0" encoding="UTF-8"?>
<svg id="Camada_1" xmlns="http://www.w3.org/2000/svg" version="1.1" viewBox="0 0 433.2 433.2">
  <!-- Generator: Adobe Illustrator 29.1.0, SVG Export Plug-In . SVG Version: 2.1.0 Build 142)  -->
  <defs>
    <style>
      .st0 {
        fill: #00af73;
      }

      .st1 {
        fill: #fff;
      }
    </style>
  </defs>
  <rect class="st0" x="1.2" y="2.6" width="432" height="432" rx="94.1" ry="94.1"/>
  <g>
    <path class="st1" d="M146.3,170.6c9.8-.2,18.2-1.4,26.1,5.3,11.6,9.8,22.1,24.5,33.8,33.7,6.8,5.4,15.2,5.4,22.1,0,11.7-9.3,22.2-24,33.8-33.7,7.9-6.7,16.3-5.5,26.1-5.3,8.2,8.7,18.2,16.8,26,25.8,11.7,13.5,11.9,30.8.2,44.3-7.7,8.9-17.8,16.8-25.7,25.7l-.9.4c-9.7,0-17.8,1.3-25.7-5.4-11.6-9.8-22.1-24.4-33.8-33.7-6.8-5.5-15.3-5.5-22.1,0-11.7,9.4-22.2,23.9-33.8,33.7s-16.3,5.5-26.1,5.3c-8.2-8.7-18.2-16.8-26-25.8-11.9-13.6-11.9-30.9,0-44.6,7.8-8.9,17.9-17.1,26-25.8Z"/>
    <path class="st1" d="M278.5,276.2l-39.9,40c-13.1,10.9-31.1,10.6-43.7-.9l-39-39.1h6.5c15.4,0,37.4-31.7,49.8-41.2,3.3-2.5,6.6-2.5,9.9,0,11.9,9.2,34.5,41.2,49.8,41.2h6.5Z"/>
    <path class="st1" d="M278.5,161h-6.5c-15.4,0-37.5,31.7-49.8,41.2-3.3,2.5-6.6,2.5-9.9,0-11.5-10.4-21.9-23.4-33.6-33.5s-11.3-7.6-16.2-7.6h-6.5l39-39.1c12.6-11.4,30.7-11.8,43.7-.9l39.9,40Z"/>
  </g>
</svg>