<?xml version="1.0" encoding="UTF-8"?>
<svg id="Camada_1" xmlns="http://www.w3.org/2000/svg" version="1.1" viewBox="0 0 1286 241">
  <!-- Generator: Adobe Illustrator 29.1.0, SVG Export Plug-In . SVG Version: 2.1.0 Build 142)  -->
  <defs>
    <style>
      .st0 {
        fill: #00b070;
      }

      .st1 {
        fill: #353535;
      }

      .st2 {
        fill: #f3f3f3;
      }
    </style>
  </defs>
  <rect class="st2" width="1286" height="241" rx="26.6" ry="26.6"/>
  <path class="st0" d="M172.1,47.9c58.7-3.5,97.4,60.8,66.2,111-28.9,46.5-97.1,45.5-124.7-1.8-27.2-46.8,4.8-106,58.5-109.2ZM184.1,75.8h-16.3v7.3c-14.1,2-22.4,13.5-19.1,27.6s20.2,14.2,31.3,18.8,5.9,3.8,4.3,7.5c-2.6,6.1-17.3,4.7-16.2-3.6h-20.9c-.5,13,9.1,22.5,21.5,24.4v7.6h16.3v-7.4c1.9-.7,4-1.2,6-1.9,11.7-4.4,17.5-15.7,14.3-27.9-3.7-14.1-19.7-14.5-30.8-18.6s-5-1.9-5.5-4.1c-2.1-8.1,15.3-8.2,14.4.3h20.4c.4-11.9-8-20.9-19.5-22.7v-7.3Z"/>
  <g>
    <path class="st1" d="M348,67.7l-14.4,38.5h-7.3l-14.5-38.5h6.8l11.4,32,11.5-32h6.6Z"/>
    <path class="st1" d="M381,93.3h-23.3c.2,2.4,1.1,4.4,2.7,5.9,1.6,1.5,3.6,2.2,6,2.2,3.4,0,5.8-1.4,7.2-4.3h6.8c-.9,2.8-2.6,5.1-5,6.9-2.4,1.8-5.4,2.7-9,2.7s-5.5-.7-7.8-2c-2.3-1.3-4.1-3.2-5.4-5.5-1.3-2.4-2-5.1-2-8.3s.6-5.9,1.9-8.3c1.3-2.4,3.1-4.2,5.4-5.5,2.3-1.3,5-1.9,7.9-1.9s5.4.6,7.7,1.9c2.2,1.3,4,3,5.3,5.3,1.3,2.3,1.9,4.9,1.9,7.8s0,2.2-.2,3.1ZM374.6,88.2c0-2.3-.9-4.2-2.5-5.6-1.6-1.4-3.6-2.1-6-2.1s-4,.7-5.6,2.1c-1.5,1.4-2.5,3.3-2.8,5.6h16.9Z"/>
    <path class="st1" d="M409.2,76.7c1.9,1,3.4,2.5,4.5,4.4,1.1,2,1.6,4.3,1.6,7.1v18h-6.3v-17c0-2.7-.7-4.8-2-6.3-1.4-1.5-3.2-2.2-5.6-2.2s-4.2.7-5.6,2.2c-1.4,1.5-2.1,3.6-2.1,6.3v17h-6.3v-30.5h6.3v3.5c1-1.3,2.4-2.2,4-2.9,1.6-.7,3.3-1.1,5.1-1.1s4.5.5,6.4,1.5Z"/>
    <path class="st1" d="M423.1,82.6c1.3-2.4,3-4.2,5.2-5.5,2.2-1.3,4.6-2,7.3-2s4,.4,5.9,1.3c1.9.9,3.5,2,4.6,3.5v-14.7h6.4v41h-6.4v-4.6c-1,1.5-2.5,2.7-4.3,3.7-1.8,1-3.9,1.4-6.3,1.4s-5.1-.7-7.3-2c-2.2-1.3-3.9-3.2-5.2-5.6-1.3-2.4-1.9-5.2-1.9-8.2s.6-5.8,1.9-8.1ZM444.9,85.4c-.9-1.5-2-2.7-3.4-3.5-1.4-.8-2.9-1.2-4.5-1.2s-3.1.4-4.5,1.2c-1.4.8-2.5,2-3.4,3.5-.9,1.5-1.3,3.3-1.3,5.5s.4,3.9,1.3,5.5c.9,1.6,2,2.8,3.4,3.6,1.4.8,2.9,1.2,4.5,1.2s3.1-.4,4.5-1.2c1.4-.8,2.5-2,3.4-3.6.9-1.6,1.3-3.4,1.3-5.5s-.4-3.9-1.3-5.5Z"/>
    <path class="st1" d="M460.6,82.6c1.3-2.4,3-4.2,5.2-5.5,2.2-1.3,4.6-2,7.3-2s4.5.5,6.3,1.4c1.8.9,3.2,2.1,4.3,3.5v-4.4h6.4v30.5h-6.4v-4.5c-1.1,1.4-2.5,2.6-4.4,3.6-1.8,1-3.9,1.4-6.3,1.4s-5-.7-7.2-2c-2.2-1.3-3.9-3.2-5.2-5.6-1.3-2.4-1.9-5.2-1.9-8.2s.6-5.8,1.9-8.1ZM482.4,85.4c-.9-1.5-2-2.7-3.4-3.5-1.4-.8-2.9-1.2-4.5-1.2s-3.1.4-4.5,1.2c-1.4.8-2.5,2-3.4,3.5-.9,1.5-1.3,3.3-1.3,5.5s.4,3.9,1.3,5.5c.9,1.6,2,2.8,3.4,3.6,1.4.8,2.9,1.2,4.5,1.2s3.1-.4,4.5-1.2c1.4-.8,2.5-2,3.4-3.6.9-1.6,1.3-3.4,1.3-5.5s-.4-3.9-1.3-5.5Z"/>
    <path class="st1" d="M512.5,82.6c1.3-2.4,3-4.2,5.2-5.5,2.2-1.3,4.6-2,7.3-2s4.5.5,6.3,1.4c1.8.9,3.2,2.1,4.3,3.5v-4.4h6.4v30.5h-6.4v-4.5c-1.1,1.4-2.5,2.6-4.4,3.6-1.8,1-3.9,1.4-6.3,1.4s-5-.7-7.2-2c-2.2-1.3-3.9-3.2-5.2-5.6-1.3-2.4-1.9-5.2-1.9-8.2s.6-5.8,1.9-8.1ZM534.3,85.4c-.9-1.5-2-2.7-3.4-3.5-1.4-.8-2.9-1.2-4.5-1.2s-3.1.4-4.5,1.2c-1.4.8-2.5,2-3.4,3.5-.9,1.5-1.3,3.3-1.3,5.5s.4,3.9,1.3,5.5c.9,1.6,2,2.8,3.4,3.6,1.4.8,2.9,1.2,4.5,1.2s3.1-.4,4.5-1.2c1.4-.8,2.5-2,3.4-3.6.9-1.6,1.3-3.4,1.3-5.5s-.4-3.9-1.3-5.5ZM533,68.9v4.6l-12.2-6v-5.4l12.2,6.8Z"/>
    <path class="st1" d="M575.3,76.6c1.8-1,3.9-1.4,6.3-1.4s5.1.7,7.3,2c2.2,1.3,3.9,3.1,5.2,5.5,1.3,2.4,1.9,5.1,1.9,8.1s-.6,5.8-1.9,8.2c-1.3,2.4-3,4.3-5.2,5.6-2.2,1.3-4.6,2-7.3,2s-4.4-.5-6.2-1.4c-1.8-.9-3.3-2.1-4.4-3.5v18.9h-6.3v-45h6.3v4.5c1.1-1.4,2.5-2.6,4.4-3.5ZM588.2,85.3c-.9-1.5-2-2.7-3.4-3.5-1.4-.8-2.9-1.2-4.6-1.2s-3.1.4-4.5,1.2c-1.4.8-2.6,2-3.4,3.5-.9,1.5-1.3,3.4-1.3,5.5s.4,3.9,1.3,5.5c.9,1.6,2,2.8,3.4,3.6,1.4.8,2.9,1.2,4.5,1.2s3.1-.4,4.6-1.2c1.4-.8,2.6-2,3.4-3.6.9-1.6,1.3-3.4,1.3-5.5s-.4-3.9-1.3-5.5Z"/>
    <path class="st1" d="M612.2,76.5c1.5-.9,3.3-1.3,5.5-1.3v6.5h-1.6c-2.5,0-4.3.6-5.6,1.9-1.3,1.3-1.9,3.4-1.9,6.5v16h-6.3v-30.5h6.3v4.4c.9-1.5,2.1-2.8,3.7-3.6Z"/>
    <path class="st1" d="M623.2,82.6c1.3-2.4,3-4.2,5.2-5.5,2.2-1.3,4.6-2,7.3-2s4.5.5,6.3,1.4c1.8.9,3.2,2.1,4.3,3.5v-4.4h6.4v30.5h-6.4v-4.5c-1.1,1.4-2.5,2.6-4.4,3.6-1.8,1-3.9,1.4-6.3,1.4s-5-.7-7.2-2c-2.2-1.3-3.9-3.2-5.2-5.6-1.3-2.4-1.9-5.2-1.9-8.2s.6-5.8,1.9-8.1ZM645,85.4c-.9-1.5-2-2.7-3.4-3.5-1.4-.8-2.9-1.2-4.5-1.2s-3.1.4-4.5,1.2c-1.4.8-2.5,2-3.4,3.5-.9,1.5-1.3,3.3-1.3,5.5s.4,3.9,1.3,5.5c.9,1.6,2,2.8,3.4,3.6,1.4.8,2.9,1.2,4.5,1.2s3.1-.4,4.5-1.2c1.4-.8,2.5-2,3.4-3.6.9-1.6,1.3-3.4,1.3-5.5s-.4-3.9-1.3-5.5Z"/>
    <path class="st1" d="M666.5,101h13.8v5.1h-21.1v-5.1l13.9-20.2h-13.9v-5.1h21.1v5.1l-13.8,20.2Z"/>
    <path class="st1" d="M692.4,104.7c-2.3-1.3-4.2-3.2-5.5-5.5-1.3-2.4-2-5.1-2-8.3s.7-5.8,2-8.2c1.4-2.4,3.2-4.2,5.6-5.5,2.4-1.3,5-1.9,7.9-1.9s5.6.6,7.9,1.9c2.4,1.3,4.2,3.1,5.6,5.5,1.4,2.4,2,5.1,2,8.2s-.7,5.8-2.1,8.2c-1.4,2.4-3.3,4.3-5.7,5.6-2.4,1.3-5.1,2-8,2s-5.5-.7-7.8-2ZM704.8,100c1.4-.8,2.6-1.9,3.5-3.5s1.3-3.4,1.3-5.6-.4-4.1-1.3-5.6c-.8-1.5-2-2.7-3.4-3.5-1.4-.8-2.9-1.2-4.5-1.2s-3.1.4-4.5,1.2c-1.4.8-2.5,1.9-3.3,3.5-.8,1.5-1.2,3.4-1.2,5.6,0,3.3.8,5.8,2.5,7.6,1.7,1.8,3.8,2.7,6.3,2.7s3.1-.4,4.6-1.2Z"/>
    <path class="st1" d="M729.2,98.6l-6.7,15.3h-4.1l3.9-15.3h6.9Z"/>
    <path class="st1" d="M759.1,76.5c1.5-.9,3.3-1.3,5.5-1.3v6.5h-1.6c-2.5,0-4.3.6-5.6,1.9-1.3,1.3-1.9,3.4-1.9,6.5v16h-6.3v-30.5h6.3v4.4c.9-1.5,2.1-2.8,3.7-3.6Z"/>
    <path class="st1" d="M798.1,93.3h-23.3c.2,2.4,1.1,4.4,2.7,5.9,1.6,1.5,3.6,2.2,6,2.2,3.4,0,5.8-1.4,7.2-4.3h6.8c-.9,2.8-2.6,5.1-5,6.9-2.4,1.8-5.4,2.7-9,2.7s-5.5-.7-7.8-2c-2.3-1.3-4.1-3.2-5.4-5.5-1.3-2.4-2-5.1-2-8.3s.6-5.9,1.9-8.3c1.3-2.4,3.1-4.2,5.4-5.5,2.3-1.3,5-1.9,7.9-1.9s5.4.6,7.7,1.9c2.3,1.3,4,3,5.3,5.3,1.3,2.3,1.9,4.9,1.9,7.8s0,2.2-.2,3.1ZM791.8,88.2c0-2.3-.9-4.2-2.5-5.6-1.6-1.4-3.6-2.1-6-2.1s-4,.7-5.6,2.1c-1.5,1.4-2.5,3.3-2.8,5.6h16.9Z"/>
    <path class="st1" d="M804.4,82.6c1.3-2.4,3-4.2,5.3-5.5,2.3-1.3,4.8-1.9,7.7-1.9s6.7.9,9.2,2.6c2.4,1.8,4,4.3,4.9,7.5h-6.8c-.6-1.5-1.4-2.7-2.7-3.5-1.2-.8-2.7-1.3-4.6-1.3s-4.6.9-6.2,2.7c-1.5,1.8-2.3,4.4-2.3,7.7s.8,5.8,2.3,7.7c1.5,1.8,3.6,2.8,6.2,2.8s6.1-1.6,7.2-4.8h6.8c-.9,3.1-2.5,5.6-5,7.4-2.4,1.8-5.5,2.7-9.1,2.7s-5.5-.7-7.7-2c-2.3-1.3-4-3.2-5.3-5.5-1.3-2.4-1.9-5.1-1.9-8.3s.6-5.9,1.9-8.3Z"/>
    <path class="st1" d="M865.5,93.3h-23.3c.2,2.4,1.1,4.4,2.7,5.9,1.6,1.5,3.6,2.2,6,2.2,3.4,0,5.8-1.4,7.2-4.3h6.8c-.9,2.8-2.6,5.1-5,6.9-2.4,1.8-5.4,2.7-9,2.7s-5.5-.7-7.8-2c-2.3-1.3-4.1-3.2-5.4-5.5-1.3-2.4-2-5.1-2-8.3s.6-5.9,1.9-8.3c1.3-2.4,3.1-4.2,5.4-5.5,2.3-1.3,5-1.9,7.9-1.9s5.4.6,7.7,1.9c2.3,1.3,4,3,5.3,5.3,1.3,2.3,1.9,4.9,1.9,7.8s0,2.2-.2,3.1ZM859.1,88.2c0-2.3-.9-4.2-2.5-5.6-1.6-1.4-3.6-2.1-6-2.1s-4,.7-5.6,2.1c-1.5,1.4-2.5,3.3-2.8,5.6h16.9Z"/>
    <path class="st1" d="M882.6,76.6c1.9-.9,3.9-1.4,6.2-1.4s5.1.6,7.3,1.9c2.2,1.3,3.9,3.1,5.1,5.5,1.3,2.4,1.9,5.1,1.9,8.2s-.6,5.8-1.9,8.2c-1.3,2.4-3,4.3-5.2,5.6-2.2,1.3-4.6,2-7.3,2s-4.5-.5-6.3-1.4c-1.8-.9-3.3-2.1-4.3-3.5v4.4h-6.3v-41h6.3v15c1.1-1.5,2.5-2.7,4.4-3.6ZM895.5,85.3c-.9-1.5-2-2.7-3.4-3.5-1.4-.8-2.9-1.2-4.6-1.2s-3.1.4-4.5,1.2c-1.4.8-2.6,2-3.4,3.5-.9,1.5-1.3,3.4-1.3,5.5s.4,3.9,1.3,5.5c.9,1.6,2,2.8,3.4,3.6,1.4.8,2.9,1.2,4.5,1.2s3.1-.4,4.6-1.2c1.4-.8,2.6-2,3.4-3.6.9-1.6,1.3-3.4,1.3-5.5s-.4-3.9-1.3-5.5Z"/>
    <path class="st1" d="M909.2,82.6c1.3-2.4,3-4.2,5.2-5.5,2.2-1.3,4.6-2,7.3-2s4.5.5,6.3,1.4c1.8.9,3.2,2.1,4.3,3.5v-4.4h6.4v30.5h-6.4v-4.5c-1.1,1.4-2.5,2.6-4.4,3.6-1.8,1-3.9,1.4-6.3,1.4s-5-.7-7.2-2c-2.2-1.3-3.9-3.2-5.2-5.6-1.3-2.4-1.9-5.2-1.9-8.2s.6-5.8,1.9-8.1ZM931,85.4c-.9-1.5-2-2.7-3.4-3.5-1.4-.8-2.9-1.2-4.5-1.2s-3.1.4-4.5,1.2c-1.4.8-2.5,2-3.4,3.5-.9,1.5-1.3,3.3-1.3,5.5s.4,3.9,1.3,5.5c.9,1.6,2,2.8,3.4,3.6,1.4.8,2.9,1.2,4.5,1.2s3.1-.4,4.5-1.2c1.4-.8,2.5-2,3.4-3.6.9-1.6,1.3-3.4,1.3-5.5s-.4-3.9-1.3-5.5Z"/>
    <path class="st1" d="M961.2,82.6c1.3-2.4,3-4.2,5.2-5.5,2.2-1.3,4.6-2,7.3-2s4.5.5,6.3,1.4c1.8.9,3.2,2.1,4.3,3.5v-4.4h6.4v30.5h-6.4v-4.5c-1.1,1.4-2.5,2.6-4.4,3.6-1.8,1-3.9,1.4-6.3,1.4s-5-.7-7.2-2c-2.2-1.3-3.9-3.2-5.2-5.6-1.3-2.4-1.9-5.2-1.9-8.2s.6-5.8,1.9-8.1ZM982.9,85.4c-.9-1.5-2-2.7-3.4-3.5-1.4-.8-2.9-1.2-4.5-1.2s-3.1.4-4.5,1.2c-1.4.8-2.5,2-3.4,3.5-.9,1.5-1.3,3.3-1.3,5.5s.4,3.9,1.3,5.5c.9,1.6,2,2.8,3.4,3.6,1.4.8,2.9,1.2,4.5,1.2s3.1-.4,4.5-1.2c1.4-.8,2.5-2,3.4-3.6.9-1.6,1.3-3.4,1.3-5.5s-.4-3.9-1.3-5.5ZM981.7,68.9v4.6l-12.2-6v-5.4l12.2,6.8Z"/>
    <path class="st1" d="M1025,100.5l8.6-24.8h6.7l-11.6,30.5h-7.5l-11.6-30.5h6.8l8.6,24.8Z"/>
    <path class="st1" d="M1045.5,70.5c-.8-.8-1.2-1.7-1.2-2.9s.4-2.1,1.2-2.9c.8-.8,1.7-1.2,2.9-1.2s2,.4,2.8,1.2c.8.8,1.2,1.7,1.2,2.9s-.4,2.1-1.2,2.9c-.8.8-1.7,1.2-2.8,1.2s-2.1-.4-2.9-1.2ZM1051.4,75.7v30.5h-6.3v-30.5h6.3Z"/>
    <path class="st1" d="M1064.4,105.4c-1.9-.9-3.4-2-4.5-3.5-1.1-1.5-1.7-3.2-1.8-5h6.5c.1,1.3.7,2.4,1.9,3.2,1.1.9,2.5,1.3,4.2,1.3s3.1-.3,4.1-1c1-.7,1.5-1.6,1.5-2.6s-.5-2-1.6-2.5c-1.1-.6-2.8-1.2-5.2-1.8-2.3-.6-4.2-1.2-5.6-1.8-1.4-.6-2.7-1.5-3.7-2.7s-1.6-2.8-1.6-4.8.5-3.1,1.4-4.5c1-1.3,2.3-2.4,4.1-3.2,1.8-.8,3.8-1.2,6.2-1.2,3.5,0,6.3.9,8.4,2.6,2.1,1.8,3.3,4.1,3.4,7.2h-6.3c-.1-1.4-.7-2.5-1.7-3.3-1-.8-2.3-1.2-4-1.2s-2.9.3-3.8.9c-.9.6-1.3,1.5-1.3,2.5s.3,1.5.9,2c.6.6,1.3,1,2.2,1.3.8.3,2.1.7,3.8,1.2,2.2.6,4,1.2,5.5,1.8,1.4.6,2.6,1.5,3.7,2.7,1,1.2,1.6,2.7,1.6,4.7,0,1.7-.5,3.3-1.4,4.6-1,1.4-2.3,2.4-4.1,3.2-1.8.8-3.8,1.2-6.2,1.2s-4.5-.4-6.4-1.3Z"/>
    <path class="st1" d="M1096.7,80.8v16.9c0,1.1.3,2,.8,2.5.5.5,1.4.7,2.7.7h3.9v5.3h-5c-2.8,0-5-.7-6.5-2s-2.3-3.5-2.3-6.5v-16.9h-3.6v-5.1h3.6v-7.6h6.4v7.6h7.4v5.1h-7.4Z"/>
    <path class="st1" d="M1109.7,82.6c1.3-2.4,3-4.2,5.2-5.5,2.2-1.3,4.6-2,7.3-2s4.5.5,6.3,1.4c1.8.9,3.2,2.1,4.3,3.5v-4.4h6.4v30.5h-6.4v-4.5c-1.1,1.4-2.5,2.6-4.4,3.6-1.8,1-3.9,1.4-6.3,1.4s-5-.7-7.2-2c-2.2-1.3-3.9-3.2-5.2-5.6-1.3-2.4-1.9-5.2-1.9-8.2s.6-5.8,1.9-8.1ZM1131.4,85.4c-.9-1.5-2-2.7-3.4-3.5-1.4-.8-2.9-1.2-4.5-1.2s-3.1.4-4.5,1.2c-1.4.8-2.5,2-3.4,3.5-.9,1.5-1.3,3.3-1.3,5.5s.4,3.9,1.3,5.5c.9,1.6,2,2.8,3.4,3.6,1.4.8,2.9,1.2,4.5,1.2s3.1-.4,4.5-1.2c1.4-.8,2.5-2,3.4-3.6.9-1.6,1.3-3.4,1.3-5.5s-.4-3.9-1.3-5.5Z"/>
    <path class="st1" d="M1154.3,98.6l-6.7,15.3h-4.1l3.9-15.3h6.9Z"/>
    <path class="st1" d="M317,170.6c-2.2-1.6-3.4-3.8-3.7-6.6h4c.2,1.7,1,3.1,2.4,4.1,1.4,1.1,3.3,1.6,5.7,1.6s3.8-.5,5-1.5c1.2-1,1.8-2.2,1.8-3.7s-.3-1.9-1-2.5c-.7-.7-1.5-1.2-2.5-1.6-1-.4-2.4-.8-4.1-1.2-2.3-.6-4.1-1.2-5.5-1.8-1.4-.6-2.6-1.5-3.6-2.6-1-1.2-1.5-2.7-1.5-4.7s.4-2.8,1.3-4.1c.9-1.3,2.1-2.3,3.8-3,1.6-.7,3.5-1.1,5.5-1.1,3.2,0,5.9.8,7.9,2.5,2,1.6,3.1,3.9,3.2,6.8h-3.9c-.1-1.8-.8-3.2-2.1-4.3-1.3-1.1-3-1.6-5.2-1.6s-3.5.5-4.8,1.4c-1.2.9-1.8,2.1-1.8,3.4s.4,2.2,1.1,2.9c.7.8,1.6,1.3,2.7,1.8,1.1.4,2.5.9,4.3,1.4,2.2.6,3.9,1.2,5.2,1.7,1.3.6,2.4,1.4,3.3,2.4.9,1.1,1.4,2.5,1.4,4.3,0,1.6-.4,3.1-1.3,4.3s-2.1,2.3-3.7,3c-1.6.7-3.4,1.1-5.5,1.1-3.5,0-6.3-.8-8.5-2.4Z"/>
    <path class="st1" d="M370.6,159h-25.1c.1,2.3.7,4.2,1.7,5.9,1,1.6,2.3,2.9,3.9,3.7,1.6.8,3.4,1.2,5.3,1.2s4.6-.6,6.3-1.8c1.7-1.2,2.9-2.9,3.4-4.9h4.1c-.7,3-2.3,5.4-4.7,7.2-2.4,1.9-5.5,2.8-9.1,2.8s-5.4-.6-7.6-1.9c-2.3-1.3-4-3.1-5.3-5.4-1.3-2.3-1.9-5.1-1.9-8.2s.6-5.9,1.9-8.2c1.3-2.4,3-4.2,5.3-5.4,2.2-1.3,4.8-1.9,7.7-1.9s5.4.6,7.6,1.9c2.2,1.3,3.8,2.9,5,5.1,1.2,2.1,1.7,4.5,1.7,7.1s0,2.3-.1,3ZM365.4,150c-.9-1.6-2.2-2.8-3.8-3.6-1.6-.8-3.4-1.2-5.3-1.2-2.9,0-5.3.9-7.4,2.8-2,1.8-3.2,4.4-3.4,7.8h21.3c0-2.3-.4-4.2-1.4-5.8Z"/>
    <path class="st1" d="M422.4,145.1c2.2,2.2,3.3,5.5,3.3,9.7v17.7h-3.8v-17.3c0-3.3-.8-5.8-2.4-7.5-1.6-1.7-3.7-2.6-6.5-2.6s-5.1.9-6.8,2.8c-1.7,1.9-2.5,4.6-2.5,8.2v16.4h-3.8v-17.3c0-3.3-.8-5.8-2.4-7.5-1.6-1.7-3.8-2.6-6.5-2.6s-5.1.9-6.8,2.8c-1.7,1.9-2.5,4.6-2.5,8.2v16.4h-3.9v-30.2h3.9v5.2c1-1.9,2.3-3.3,4.1-4.3,1.8-1,3.7-1.5,5.9-1.5s4.9.6,6.9,1.9c2,1.3,3.4,3.1,4.3,5.5.8-2.4,2.2-4.2,4.2-5.5,2-1.3,4.2-1.9,6.7-1.9s6.4,1.1,8.7,3.3Z"/>
    <path class="st1" d="M457.3,143.3c1.8-1,3.9-1.5,6.4-1.5v4h-1.1c-2.8,0-5.1.8-6.8,2.3-1.7,1.5-2.5,4-2.5,7.6v16.9h-3.9v-30.2h3.9v5.4c.8-1.9,2.1-3.3,3.9-4.4Z"/>
    <path class="st1" d="M469.5,135.8c-.6-.6-.8-1.2-.8-2s.3-1.5.8-2c.6-.5,1.2-.8,2-.8s1.4.3,2,.8c.6.5.8,1.2.8,2s-.3,1.5-.8,2-1.2.8-2,.8-1.4-.3-2-.8ZM473.4,142.4v30.2h-3.9v-30.2h3.9Z"/>
    <path class="st1" d="M484.1,170.6c-2.2-1.6-3.4-3.8-3.7-6.6h4c.2,1.7,1,3.1,2.4,4.1,1.4,1.1,3.3,1.6,5.7,1.6s3.8-.5,5-1.5c1.2-1,1.8-2.2,1.8-3.7s-.3-1.9-1-2.5c-.7-.7-1.5-1.2-2.5-1.6-1-.4-2.4-.8-4.1-1.2-2.3-.6-4.1-1.2-5.5-1.8-1.4-.6-2.6-1.5-3.6-2.6-1-1.2-1.5-2.7-1.5-4.7s.4-2.8,1.3-4.1c.9-1.3,2.1-2.3,3.8-3,1.6-.7,3.5-1.1,5.5-1.1,3.2,0,5.9.8,7.9,2.5,2,1.6,3.1,3.9,3.2,6.8h-3.9c-.1-1.8-.8-3.2-2.1-4.3-1.3-1.1-3-1.6-5.2-1.6s-3.5.5-4.8,1.4c-1.2.9-1.8,2.1-1.8,3.4s.4,2.2,1.1,2.9c.7.8,1.6,1.3,2.7,1.8,1.1.4,2.5.9,4.3,1.4,2.2.6,3.9,1.2,5.2,1.7,1.3.6,2.4,1.4,3.3,2.4.9,1.1,1.4,2.5,1.4,4.3,0,1.6-.4,3.1-1.3,4.3s-2.1,2.3-3.7,3c-1.6.7-3.4,1.1-5.5,1.1-3.5,0-6.3-.8-8.5-2.4Z"/>
    <path class="st1" d="M510.5,149.2c1.3-2.3,3-4.2,5.2-5.4,2.2-1.3,4.7-1.9,7.6-1.9s6.8.9,9.2,2.8c2.4,1.8,4,4.4,4.7,7.5h-4.2c-.5-2.2-1.6-3.9-3.3-5.1-1.7-1.2-3.8-1.9-6.4-1.9s-3.9.5-5.5,1.4c-1.6.9-2.9,2.3-3.8,4.1s-1.4,4.1-1.4,6.7.5,4.9,1.4,6.8,2.2,3.2,3.8,4.2c1.6.9,3.4,1.4,5.5,1.4s4.7-.6,6.4-1.9c1.7-1.2,2.8-3,3.3-5.2h4.2c-.7,3.1-2.3,5.6-4.7,7.5-2.4,1.9-5.5,2.8-9.2,2.8s-5.4-.6-7.6-1.9-3.9-3.1-5.2-5.4c-1.3-2.3-1.9-5.1-1.9-8.2s.6-5.9,1.9-8.2Z"/>
    <path class="st1" d="M549.9,171.1c-2.3-1.3-4.1-3.1-5.4-5.4-1.3-2.3-2-5.1-2-8.2s.7-5.9,2-8.2c1.3-2.3,3.1-4.2,5.4-5.4,2.3-1.3,4.9-1.9,7.7-1.9s5.4.6,7.7,1.9c2.3,1.3,4.1,3.1,5.4,5.4,1.3,2.3,2,5.1,2,8.2s-.7,5.8-2,8.2c-1.3,2.4-3.2,4.2-5.5,5.5-2.3,1.3-4.9,1.9-7.7,1.9s-5.4-.6-7.7-1.9ZM563.1,168.3c1.7-.9,3.1-2.3,4.1-4.1,1.1-1.8,1.6-4.1,1.6-6.7s-.5-4.9-1.5-6.7c-1-1.8-2.4-3.2-4.1-4.1-1.7-.9-3.5-1.4-5.5-1.4s-3.8.5-5.5,1.4c-1.7.9-3.1,2.3-4.1,4.1-1,1.8-1.5,4.1-1.5,6.7s.5,4.9,1.5,6.7c1,1.8,2.4,3.2,4,4.1,1.7.9,3.5,1.4,5.5,1.4s3.8-.5,5.5-1.4Z"/>
    <path class="st1" d="M595.1,149.2c1.3-2.3,3-4.2,5.2-5.4,2.2-1.3,4.7-1.9,7.4-1.9s5.1.6,7.2,1.9c2.1,1.3,3.7,3,4.7,5v-17.3h3.9v41h-3.9v-6.8c-.9,2.1-2.4,3.8-4.5,5.2s-4.6,2-7.4,2-5.2-.6-7.4-1.9c-2.2-1.3-3.9-3.1-5.1-5.5-1.2-2.4-1.9-5.1-1.9-8.2s.6-5.8,1.9-8.2ZM618.2,151c-1-1.8-2.4-3.3-4.1-4.3s-3.6-1.5-5.7-1.5-4.1.5-5.8,1.4c-1.7,1-3,2.4-4,4.2-1,1.8-1.5,4-1.5,6.5s.5,4.6,1.5,6.5c1,1.9,2.3,3.3,4,4.3,1.7,1,3.6,1.5,5.8,1.5s4-.5,5.7-1.5,3.1-2.4,4.1-4.3c1-1.8,1.5-4,1.5-6.4s-.5-4.6-1.5-6.4Z"/>
    <path class="st1" d="M659.6,159h-25.1c.1,2.3.7,4.2,1.7,5.9,1,1.6,2.3,2.9,3.9,3.7,1.6.8,3.4,1.2,5.3,1.2s4.6-.6,6.3-1.8c1.7-1.2,2.9-2.9,3.4-4.9h4.1c-.7,3-2.3,5.4-4.7,7.2-2.4,1.9-5.5,2.8-9.1,2.8s-5.4-.6-7.6-1.9c-2.3-1.3-4-3.1-5.3-5.4-1.3-2.3-1.9-5.1-1.9-8.2s.6-5.9,1.9-8.2c1.3-2.4,3-4.2,5.3-5.4,2.2-1.3,4.8-1.9,7.7-1.9s5.4.6,7.6,1.9c2.2,1.3,3.8,2.9,5,5.1,1.2,2.1,1.7,4.5,1.7,7.1s0,2.3-.1,3ZM654.4,150c-.9-1.6-2.2-2.8-3.8-3.6-1.6-.8-3.4-1.2-5.3-1.2-2.9,0-5.3.9-7.4,2.8-2,1.8-3.2,4.4-3.4,7.8h21.3c0-2.3-.4-4.2-1.4-5.8Z"/>
    <path class="st1" d="M682.1,149.2c1.3-2.3,3-4.2,5.2-5.4,2.2-1.3,4.7-1.9,7.6-1.9s6.8.9,9.2,2.8c2.4,1.8,4,4.4,4.7,7.5h-4.2c-.5-2.2-1.6-3.9-3.3-5.1-1.7-1.2-3.8-1.9-6.4-1.9s-3.9.5-5.5,1.4c-1.6.9-2.9,2.3-3.8,4.1s-1.4,4.1-1.4,6.7.5,4.9,1.4,6.8,2.2,3.2,3.8,4.2c1.6.9,3.4,1.4,5.5,1.4s4.7-.6,6.4-1.9c1.7-1.2,2.8-3,3.3-5.2h4.2c-.7,3.1-2.3,5.6-4.7,7.5-2.4,1.9-5.5,2.8-9.2,2.8s-5.4-.6-7.6-1.9-3.9-3.1-5.2-5.4c-1.3-2.3-1.9-5.1-1.9-8.2s.6-5.9,1.9-8.2Z"/>
    <path class="st1" d="M723.7,143.3c1.8-1,3.9-1.5,6.4-1.5v4h-1.1c-2.8,0-5.1.8-6.8,2.3-1.7,1.5-2.5,4-2.5,7.6v16.9h-3.9v-30.2h3.9v5.4c.8-1.9,2.1-3.3,3.9-4.4Z"/>
    <path class="st1" d="M763.2,159h-25.1c.1,2.3.7,4.2,1.7,5.9,1,1.6,2.3,2.9,3.9,3.7,1.6.8,3.4,1.2,5.3,1.2s4.6-.6,6.3-1.8c1.7-1.2,2.8-2.9,3.4-4.9h4.1c-.7,3-2.3,5.4-4.7,7.2-2.4,1.9-5.5,2.8-9.1,2.8s-5.4-.6-7.6-1.9c-2.3-1.3-4-3.1-5.3-5.4-1.3-2.3-1.9-5.1-1.9-8.2s.6-5.9,1.9-8.2c1.3-2.4,3-4.2,5.3-5.4,2.3-1.3,4.8-1.9,7.7-1.9s5.4.6,7.6,1.9c2.2,1.3,3.8,2.9,5,5.1,1.2,2.1,1.7,4.5,1.7,7.1s0,2.3-.1,3ZM758,150c-.9-1.6-2.2-2.8-3.8-3.6-1.6-.8-3.4-1.2-5.3-1.2-2.9,0-5.3.9-7.4,2.8-2,1.8-3.2,4.4-3.4,7.8h21.3c0-2.3-.4-4.2-1.4-5.8ZM753.8,133.4l-11.3,6.6v-3l11.3-7.1v3.5Z"/>
    <path class="st1" d="M770.5,149.2c1.3-2.3,3-4.2,5.2-5.4,2.2-1.3,4.7-1.9,7.4-1.9s5.1.6,7.2,1.9c2.1,1.3,3.7,3,4.7,5v-17.3h3.9v41h-3.9v-6.8c-.9,2.1-2.4,3.8-4.5,5.2-2.1,1.3-4.6,2-7.4,2s-5.2-.6-7.4-1.9c-2.2-1.3-3.9-3.1-5.1-5.5-1.2-2.4-1.9-5.1-1.9-8.2s.6-5.8,1.9-8.2ZM793.5,151c-1-1.8-2.4-3.3-4.1-4.3s-3.6-1.5-5.7-1.5-4.1.5-5.8,1.4c-1.7,1-3,2.4-4,4.2-1,1.8-1.5,4-1.5,6.5s.5,4.6,1.5,6.5c1,1.9,2.3,3.3,4,4.3,1.7,1,3.6,1.5,5.8,1.5s4-.5,5.7-1.5,3.1-2.4,4.1-4.3c1-1.8,1.5-4,1.5-6.4s-.5-4.6-1.5-6.4Z"/>
    <path class="st1" d="M807.7,135.8c-.6-.6-.8-1.2-.8-2s.3-1.5.8-2c.6-.5,1.2-.8,2-.8s1.4.3,2,.8c.6.5.8,1.2.8,2s-.3,1.5-.8,2-1.2.8-2,.8-1.4-.3-2-.8ZM811.6,142.4v30.2h-3.9v-30.2h3.9Z"/>
    <path class="st1" d="M825.4,145.6v18.8c0,1.8.4,3.1,1.1,3.8.7.7,1.9,1.1,3.7,1.1h3.5v3.3h-4.2c-2.7,0-4.8-.6-6.1-1.9-1.3-1.3-2-3.4-2-6.3v-18.8h-4.2v-3.3h4.2v-7.6h3.9v7.6h8.3v3.3h-8.3Z"/>
    <path class="st1" d="M845.7,171.1c-2.3-1.3-4.1-3.1-5.4-5.4-1.3-2.3-2-5.1-2-8.2s.7-5.9,2-8.2c1.3-2.3,3.1-4.2,5.4-5.4,2.3-1.3,4.9-1.9,7.7-1.9s5.4.6,7.7,1.9c2.3,1.3,4.1,3.1,5.4,5.4,1.3,2.3,2,5.1,2,8.2s-.7,5.8-2,8.2c-1.3,2.4-3.2,4.2-5.5,5.5s-4.9,1.9-7.7,1.9-5.4-.6-7.7-1.9ZM858.9,168.3c1.7-.9,3.1-2.3,4.1-4.1,1.1-1.8,1.6-4.1,1.6-6.7s-.5-4.9-1.5-6.7c-1-1.8-2.4-3.2-4.1-4.1-1.7-.9-3.5-1.4-5.5-1.4s-3.8.5-5.5,1.4c-1.7.9-3.1,2.3-4.1,4.1-1,1.8-1.5,4.1-1.5,6.7s.5,4.9,1.5,6.7c1,1.8,2.4,3.2,4,4.1,1.7.9,3.5,1.4,5.5,1.4s3.8-.5,5.5-1.4Z"/>
    <path class="st1" d="M876.9,172c-.5-.6-.8-1.2-.8-2s.3-1.5.8-2c.5-.5,1.2-.8,2-.8s1.4.3,2,.8c.5.5.8,1.2.8,2s-.3,1.5-.8,2c-.5.6-1.2.8-2,.8s-1.5-.3-2-.8ZM880.8,133.9l-.5,28.4h-3.3l-.4-28.4h4.2Z"/>
  </g>
</svg>