<?xml version="1.0" encoding="UTF-8"?>
<svg id="Camada_1" xmlns="http://www.w3.org/2000/svg" version="1.1" viewBox="0 0 433.2 433.2">
  <!-- Generator: Adobe Illustrator 29.1.0, SVG Export Plug-In . SVG Version: 2.1.0 Build 142)  -->
  <defs>
    <style>
      .st0 {
        fill: #00af73;
      }

      .st1 {
        fill: #fff;
      }
    </style>
  </defs>
  <rect class="st0" x="1.2" y="2.6" width="432" height="432" rx="94.1" ry="94.1"/>
  <g>
    <path class="st1" d="M213.4,141.2h4.7c69.1,1.7,112.6,75.8,78.1,136.8-34.8,61.5-125,61.3-159.5-.3-33.8-60.4,8.4-133.8,76.7-136.5ZM223.7,228.5v-43.7c-1.8-8.2-12.9-8-14.2.4,1,15.3-1.4,32.4,0,47.5s1.3,4.5,3.7,6l39.4,19.6c7.9,1.1,11.9-8.3,5.1-13l-34-16.9Z"/>
    <path class="st1" d="M159.7,120c4.4-.2,9.1,3.2,9.7,7.6s-1,7-4.2,9.8c-11.3,10.1-26.4,18.5-38.1,28.3-10,5-19.5-7.5-9.9-16s25.8-18.1,37.3-27.9c1.5-.9,3.4-1.8,5.2-1.9Z"/>
    <path class="st1" d="M272.5,120c2.2-.1,4.4.8,6.2,1.9,11.2,10,27.1,18.2,37.7,28.3,8.7,8.2,0,20.2-10.3,15.6l-40.2-30.3c-5.1-5.8-1.2-15.1,6.5-15.5Z"/>
  </g>
</svg>