<?xml version="1.0" encoding="UTF-8"?>
<svg id="Camada_1" xmlns="http://www.w3.org/2000/svg" version="1.1" viewBox="0 0 433.2 433.2">
  <!-- Generator: Adobe Illustrator 29.1.0, SVG Export Plug-In . SVG Version: 2.1.0 Build 142)  -->
  <defs>
    <style>
      .st0 {
        fill: #00af73;
      }

      .st1 {
        fill: #fff;
      }
    </style>
  </defs>
  <rect class="st0" x=".6" y="1.6" width="432" height="432" rx="94.1" ry="94.1"/>
  <g>
    <path class="st1" d="M93.8,194.7c1-4.4,2.8-7,5.7-10.3,52.7-60.2,144-71.4,209.2-24.5,11.4,8.2,26.8,20.8,29.2,28.7,3.6,12-6.1,23.1-18.4,21.3-7.2-1.1-12.9-9.3-18-14-48.7-44.3-120.2-42.9-168.4,1.4-5,4.6-12.5,14.6-19.1,15.8-9.9,1.8-18-4.1-20.1-13.7v-4.8h-.1Z"/>
    <path class="st1" d="M210.4,190.6c23.6-1.8,45.8,4.3,64.6,18.3,5.6,4.2,18.6,15.3,21,21.6,4.2,10.8-2.9,23.2-14.5,24.5s-17.8-9.3-25.8-15.7c-21.3-17.2-51.1-17.5-72.7-.5s-9.7,10.2-15.1,14.6c-17.5,14.5-39.9-7.5-25.3-25.3,16.2-19.9,41.9-35.4,67.8-37.4h0Z"/>
    <path class="st1" d="M213.7,258c36.2-3.6,43.7,49.7,8.7,56.6-39.1,7.7-47.3-52.7-8.7-56.6Z"/>
  </g>
</svg>